# xmcd
#
# Track frame offsets:
#	150
#	14211
#	28002
#	41241
#	53430
#	66048
#	81990
#	98874
#	107490
#	119184
#	131484
#	141852
#	151590
#	172254
#	190530
#
# Disc length: 2742 seconds
#
# Revision: 1
# Processed by: cddbd v1.5.2PL0 Copyright (c) Steve Scherf et al.
# Submitted via: audiograbber 1.83.01
#
DISCID=cf0ab40f
DTITLE=Various Artist - Brazil
DYEAR=2004
DGENRE=Samba
TTITLE0=Dicro - Rua da amargura
TTITLE1=Rubbens da manguiera - Reza forte - Mocoto e mieu
TTITLE2=ConJunto Raul de Barros - Casa de bamba
TTITLE3=Emilio santiago - Nega dina
TTITLE4=Wilson dans neves - Soberana
TTITLE5=Conjuunto escrete do samba - Saudo maluco - Trem daz onze
TTITLE6=Bezerra da silva - Ressuscita ele
TTITLE7=Aparecida - Boa noite
TTITLE8=Emilio santiago - Batendo a porta
TTITLE9=Mariuza - Me leva, me leva
TTITLE10=Conjunto da villa and Gres unidos de villa isabel - Sonho de hum sonho
TTITLE11=Conjuto nosso samba - Quando vim de minas
TTITLE12=Bezerra da silva - Overdose de cocada
TTITLE13=Martinho da silva and gres unidos de villa isabel - Sonho de hum sonho
TTITLE14=Bateria da escola de samba mocidade independente de padre miguel - Bap
TTITLE14=e papo (Batucada)
EXTD=
EXTT0=
EXTT1=
EXTT2=
EXTT3=
EXTT4=
EXTT5=
EXTT6=
EXTT7=
EXTT8=
EXTT9=
EXTT10=
EXTT11=
EXTT12=
EXTT13=
EXTT14=
PLAYORDER=
